<?xml version="1.0" encoding="UTF-8"?>
<mxfile host="app.diagrams.net" modified="2024-01-01T00:00:00.000Z" agent="5.0" etag="abc123" version="22.1.16" type="device">
  <diagram name="QuantDesk Architecture" id="architecture-diagram">
    <mxGraphModel dx="1422" dy="794" grid="1" gridSize="10" guides="1" tooltips="1" connect="1" arrows="1" fold="1" page="1" pageScale="1" pageWidth="1169" pageHeight="827" math="0" shadow="0">
      <root>
        <mxCell id="0" />
        <mxCell id="1" parent="0" />
        
        <!-- User Layer -->
        <mxCell id="user-layer" value="👥 USER LAYER" style="swimlane;fontStyle=1;align=center;verticalAlign=top;childLayout=stackLayout;horizontal=1;startSize=30;horizontalStack=0;resizeParent=1;resizeParentMax=0;resizeLast=0;collapsible=1;marginBottom=0;fillColor=#1a1a1a;strokeColor=#3b82f6;fontColor=#ffffff;fontSize=16;fontStyle=1;" vertex="1" parent="1">
          <mxGeometry x="50" y="50" width="200" height="120" as="geometry" />
        </mxCell>
        <mxCell id="user1" value="👤 Individual Traders" style="rounded=1;whiteSpace=wrap;html=1;fillColor=#0a0a0a;strokeColor=#3b82f6;fontColor=#ffffff;fontSize=14;fontStyle=1;" vertex="1" parent="user-layer">
          <mxGeometry x="10" y="40" width="180" height="30" as="geometry" />
        </mxCell>
        <mxCell id="user2" value="📱 Mobile Apps" style="rounded=1;whiteSpace=wrap;html=1;fillColor=#0a0a0a;strokeColor=#3b82f6;fontColor=#ffffff;fontSize=14;fontStyle=1;" vertex="1" parent="user-layer">
          <mxGeometry x="10" y="80" width="180" height="30" as="geometry" />
        </mxCell>

        <!-- Frontend Layer -->
        <mxCell id="frontend-layer" value="🎨 FRONTEND LAYER" style="swimlane;fontStyle=1;align=center;verticalAlign=top;childLayout=stackLayout;horizontal=1;startSize=30;horizontalStack=0;resizeParent=1;resizeParentMax=0;resizeLast=0;collapsible=1;marginBottom=0;fillColor=#1a1a1a;strokeColor=#3b82f6;fontColor=#ffffff;fontSize=16;fontStyle=1;" vertex="1" parent="1">
          <mxGeometry x="300" y="50" width="200" height="120" as="geometry" />
        </mxCell>
        <mxCell id="frontend1" value="🖥️ React Frontend" style="rounded=1;whiteSpace=wrap;html=1;fillColor=#0a0a0a;strokeColor=#3b82f6;fontColor=#ffffff;fontSize=14;fontStyle=1;" vertex="1" parent="frontend-layer">
          <mxGeometry x="10" y="40" width="180" height="30" as="geometry" />
        </mxCell>
        <mxCell id="frontend2" value="📊 TradingView Charts" style="rounded=1;whiteSpace=wrap;html=1;fillColor=#0a0a0a;strokeColor=#3b82f6;fontColor=#ffffff;fontSize=14;fontStyle=1;" vertex="1" parent="frontend-layer">
          <mxGeometry x="10" y="80" width="180" height="30" as="geometry" />
        </mxCell>

        <!-- API Gateway -->
        <mxCell id="api-gateway" value="🚀 API GATEWAY" style="swimlane;fontStyle=1;align=center;verticalAlign=top;childLayout=stackLayout;horizontal=1;startSize=30;horizontalStack=0;resizeParent=1;resizeParentMax=0;resizeLast=0;collapsible=1;marginBottom=0;fillColor=#1a1a1a;strokeColor=#3b82f6;fontColor=#ffffff;fontSize=16;fontStyle=1;" vertex="1" parent="1">
          <mxGeometry x="550" y="50" width="200" height="120" as="geometry" />
        </mxCell>
        <mxCell id="api1" value="🔐 Express.js Server" style="rounded=1;whiteSpace=wrap;html=1;fillColor=#0a0a0a;strokeColor=#3b82f6;fontColor=#ffffff;fontSize=14;fontStyle=1;" vertex="1" parent="api-gateway">
          <mxGeometry x="10" y="40" width="180" height="30" as="geometry" />
        </mxCell>
        <mxCell id="api2" value="🌐 WebSocket Server" style="rounded=1;whiteSpace=wrap;html=1;fillColor=#0a0a0a;strokeColor=#3b82f6;fontColor=#ffffff;fontSize=14;fontStyle=1;" vertex="1" parent="api-gateway">
          <mxGeometry x="10" y="80" width="180" height="30" as="geometry" />
        </mxCell>

        <!-- Service Layer -->
        <mxCell id="service-layer" value="🔧 SERVICE LAYER" style="swimlane;fontStyle=1;align=center;verticalAlign=top;childLayout=stackLayout;horizontal=1;startSize=30;horizontalStack=0;resizeParent=1;resizeParentMax=0;resizeLast=0;collapsible=1;marginBottom=0;fillColor=#1a1a1a;strokeColor=#3b82f6;fontColor=#ffffff;fontSize=16;fontStyle=1;" vertex="1" parent="1">
          <mxGeometry x="800" y="50" width="300" height="200" as="geometry" />
        </mxCell>
        <mxCell id="service1" value="📈 Market Data Service" style="rounded=1;whiteSpace=wrap;html=1;fillColor=#0a0a0a;strokeColor=#3b82f6;fontColor=#ffffff;fontSize=14;fontStyle=1;" vertex="1" parent="service-layer">
          <mxGeometry x="10" y="40" width="130" height="30" as="geometry" />
        </mxCell>
        <mxCell id="service2" value="⚡ Trading Engine" style="rounded=1;whiteSpace=wrap;html=1;fillColor=#0a0a0a;strokeColor=#3b82f6;fontColor=#ffffff;fontSize=14;fontStyle=1;" vertex="1" parent="service-layer">
          <mxGeometry x="150" y="40" width="130" height="30" as="geometry" />
        </mxCell>
        <mxCell id="service3" value="📊 Order Matching" style="rounded=1;whiteSpace=wrap;html=1;fillColor=#0a0a0a;strokeColor=#3b82f6;fontColor=#ffffff;fontSize=14;fontStyle=1;" vertex="1" parent="service-layer">
          <mxGeometry x="10" y="80" width="130" height="30" as="geometry" />
        </mxCell>
        <mxCell id="service4" value="🛡️ Risk Management" style="rounded=1;whiteSpace=wrap;html=1;fillColor=#0a0a0a;strokeColor=#3b82f6;fontColor=#ffffff;fontSize=14;fontStyle=1;" vertex="1" parent="service-layer">
          <mxGeometry x="150" y="80" width="130" height="30" as="geometry" />
        </mxCell>
        <mxCell id="service5" value="💧 Liquidation Service" style="rounded=1;whiteSpace=wrap;html=1;fillColor=#0a0a0a;strokeColor=#3b82f6;fontColor=#ffffff;fontSize=14;fontStyle=1;" vertex="1" parent="service-layer">
          <mxGeometry x="10" y="120" width="130" height="30" as="geometry" />
        </mxCell>
        <mxCell id="service6" value="🔗 Wallet Service" style="rounded=1;whiteSpace=wrap;html=1;fillColor=#0a0a0a;strokeColor=#3b82f6;fontColor=#ffffff;fontSize=14;fontStyle=1;" vertex="1" parent="service-layer">
          <mxGeometry x="150" y="120" width="130" height="30" as="geometry" />
        </mxCell>

        <!-- Blockchain Layer -->
        <mxCell id="blockchain-layer" value="⛓️ BLOCKCHAIN LAYER" style="swimlane;fontStyle=1;align=center;verticalAlign=top;childLayout=stackLayout;horizontal=1;startSize=30;horizontalStack=0;resizeParent=1;resizeParentMax=0;resizeLast=0;collapsible=1;marginBottom=0;fillColor=#1a1a1a;strokeColor=#3b82f6;fontColor=#ffffff;fontSize=16;fontStyle=1;" vertex="1" parent="1">
          <mxGeometry x="50" y="300" width="200" height="120" as="geometry" />
        </mxCell>
        <mxCell id="blockchain1" value="🔗 Solana Blockchain" style="rounded=1;whiteSpace=wrap;html=1;fillColor=#0a0a0a;strokeColor=#3b82f6;fontColor=#ffffff;fontSize=14;fontStyle=1;" vertex="1" parent="blockchain-layer">
          <mxGeometry x="10" y="40" width="180" height="30" as="geometry" />
        </mxCell>
        <mxCell id="blockchain2" value="📜 Smart Contracts" style="rounded=1;whiteSpace=wrap;html=1;fillColor=#0a0a0a;strokeColor=#3b82f6;fontColor=#ffffff;fontSize=14;fontStyle=1;" vertex="1" parent="blockchain-layer">
          <mxGeometry x="10" y="80" width="180" height="30" as="geometry" />
        </mxCell>

        <!-- Data Layer -->
        <mxCell id="data-layer" value="💾 DATA LAYER" style="swimlane;fontStyle=1;align=center;verticalAlign=top;childLayout=stackLayout;horizontal=1;startSize=30;horizontalStack=0;resizeParent=1;resizeParentMax=0;resizeLast=0;collapsible=1;marginBottom=0;fillColor=#1a1a1a;strokeColor=#3b82f6;fontColor=#ffffff;fontSize=16;fontStyle=1;" vertex="1" parent="1">
          <mxGeometry x="300" y="300" width="200" height="120" as="geometry" />
        </mxCell>
        <mxCell id="data1" value="🗄️ PostgreSQL" style="rounded=1;whiteSpace=wrap;html=1;fillColor=#0a0a0a;strokeColor=#3b82f6;fontColor=#ffffff;fontSize=14;fontStyle=1;" vertex="1" parent="data-layer">
          <mxGeometry x="10" y="40" width="180" height="30" as="geometry" />
        </mxCell>
        <mxCell id="data2" value="⚡ TimescaleDB" style="rounded=1;whiteSpace=wrap;html=1;fillColor=#0a0a0a;strokeColor=#3b82f6;fontColor=#ffffff;fontSize=14;fontStyle=1;" vertex="1" parent="data-layer">
          <mxGeometry x="10" y="80" width="180" height="30" as="geometry" />
        </mxCell>

        <!-- External Layer -->
        <mxCell id="external-layer" value="🌐 EXTERNAL LAYER" style="swimlane;fontStyle=1;align=center;verticalAlign=top;childLayout=stackLayout;horizontal=1;startSize=30;horizontalStack=0;resizeParent=1;resizeParentMax=0;resizeLast=0;collapsible=1;marginBottom=0;fillColor=#1a1a1a;strokeColor=#3b82f6;fontColor=#ffffff;fontSize=16;fontStyle=1;" vertex="1" parent="1">
          <mxGeometry x="550" y="300" width="200" height="120" as="geometry" />
        </mxCell>
        <mxCell id="external1" value="🔮 Pyth Network" style="rounded=1;whiteSpace=wrap;html=1;fillColor=#0a0a0a;strokeColor=#3b82f6;fontColor=#ffffff;fontSize=14;fontStyle=1;" vertex="1" parent="external-layer">
          <mxGeometry x="10" y="40" width="180" height="30" as="geometry" />
        </mxCell>
        <mxCell id="external2" value="📊 CoinGecko" style="rounded=1;whiteSpace=wrap;html=1;fillColor=#0a0a0a;strokeColor=#3b82f6;fontColor=#ffffff;fontSize=14;fontStyle=1;" vertex="1" parent="external-layer">
          <mxGeometry x="10" y="80" width="180" height="30" as="geometry" />
        </mxCell>

        <!-- Connections -->
        <mxCell id="conn1" value="" style="endArrow=classic;html=1;rounded=0;strokeColor=#3b82f6;strokeWidth=3;" edge="1" parent="1" source="user-layer" target="frontend-layer">
          <mxGeometry width="50" height="50" relative="1" as="geometry">
            <mxPoint x="250" y="110" as="sourcePoint" />
            <mxPoint x="300" y="110" as="targetPoint" />
          </mxGeometry>
        </mxCell>
        <mxCell id="conn2" value="" style="endArrow=classic;html=1;rounded=0;strokeColor=#3b82f6;strokeWidth=3;" edge="1" parent="1" source="frontend-layer" target="api-gateway">
          <mxGeometry width="50" height="50" relative="1" as="geometry">
            <mxPoint x="500" y="110" as="sourcePoint" />
            <mxPoint x="550" y="110" as="targetPoint" />
          </mxGeometry>
        </mxCell>
        <mxCell id="conn3" value="" style="endArrow=classic;html=1;rounded=0;strokeColor=#3b82f6;strokeWidth=3;" edge="1" parent="1" source="api-gateway" target="service-layer">
          <mxGeometry width="50" height="50" relative="1" as="geometry">
            <mxPoint x="750" y="110" as="sourcePoint" />
            <mxPoint x="800" y="110" as="targetPoint" />
          </mxGeometry>
        </mxCell>
        <mxCell id="conn4" value="" style="endArrow=classic;html=1;rounded=0;strokeColor=#3b82f6;strokeWidth=3;" edge="1" parent="1" source="service-layer" target="blockchain-layer">
          <mxGeometry width="50" height="50" relative="1" as="geometry">
            <mxPoint x="800" y="250" as="sourcePoint" />
            <mxPoint x="150" y="300" as="targetPoint" />
          </mxGeometry>
        </mxCell>
        <mxCell id="conn5" value="" style="endArrow=classic;html=1;rounded=0;strokeColor=#3b82f6;strokeWidth=3;" edge="1" parent="1" source="service-layer" target="data-layer">
          <mxGeometry width="50" height="50" relative="1" as="geometry">
            <mxPoint x="800" y="250" as="sourcePoint" />
            <mxPoint x="400" y="300" as="targetPoint" />
          </mxGeometry>
        </mxCell>
        <mxCell id="conn6" value="" style="endArrow=classic;html=1;rounded=0;strokeColor=#3b82f6;strokeWidth=3;" edge="1" parent="1" source="service-layer" target="external-layer">
          <mxGeometry width="50" height="50" relative="1" as="geometry">
            <mxPoint x="800" y="250" as="sourcePoint" />
            <mxPoint x="650" y="300" as="targetPoint" />
          </mxGeometry>
        </mxCell>

      </root>
    </mxGraphModel>
  </diagram>
</mxfile>
